<svg width="32" height="24" viewBox="0 0 32 24" fill="none" xmlns="http://www.w3.org/2000/svg">
<path d="M26.6667 0H5.33333C2.4 0 0 2.4 0 5.33333V18.6667C0 21.6 2.4 24 5.33333 24H26.6667C29.6 24 32 21.6 32 18.6667V5.33333C32 2.4 29.6 0 26.6667 0ZM28.8 7.73333L18.2667 14.8C17.6 15.2 16.8 15.4667 16 15.4667C15.2 15.4667 14.4 15.2 13.7333 14.8L3.2 7.73333C2.66667 7.33333 2.53333 6.53333 2.93333 5.86667C3.33333 5.33333 4.13333 5.2 4.8 5.6L15.3333 12.6667C15.7333 12.9333 16.4 12.9333 16.8 12.6667L27.3333 5.6C28 5.2 28.8 5.33333 29.2 6C29.4667 6.53333 29.3333 7.33333 28.8 7.73333Z" fill="#50AAB2"/>
</svg>
