<svg width="26" height="26" viewBox="0 0 26 26" fill="none" xmlns="http://www.w3.org/2000/svg">
<path d="M25.5699 20.1429C25.5699 20.4643 25.5103 20.884 25.3913 21.4018C25.2722 21.9197 25.1472 22.3274 25.0163 22.6251C24.7663 23.2203 24.0401 23.8512 22.8377 24.5179C21.7187 25.125 20.6115 25.4286 19.5163 25.4286C19.1949 25.4286 18.8824 25.4078 18.5788 25.3661C18.2752 25.3245 17.933 25.25 17.552 25.1429C17.171 25.0358 16.8883 24.9495 16.7038 24.884C16.5193 24.8185 16.1889 24.6965 15.7127 24.5179C15.2365 24.3393 14.9449 24.2322 14.8377 24.1965C13.6711 23.7798 12.6294 23.2858 11.7127 22.7143C10.1889 21.7739 8.6145 20.4911 6.9895 18.8661C5.3645 17.2411 4.08176 15.6667 3.14129 14.1429C2.56986 13.2262 2.07581 12.1846 1.65914 11.0179C1.62343 10.9108 1.51629 10.6191 1.33772 10.1429C1.15914 9.66672 1.03712 9.33636 0.971645 9.15184C0.906169 8.96731 0.819859 8.68458 0.712716 8.30362C0.605573 7.92267 0.531169 7.58041 0.489502 7.27684C0.447835 6.97327 0.427002 6.66077 0.427002 6.33934C0.427002 5.2441 0.730573 4.13696 1.33772 3.01791C2.00438 1.81553 2.63534 1.08934 3.23057 0.839338C3.52819 0.708386 3.93593 0.583386 4.45379 0.464338C4.97164 0.34529 5.39129 0.285767 5.71272 0.285767C5.87938 0.285767 6.00438 0.303624 6.08772 0.339338C6.302 0.410767 6.61748 0.863147 7.03414 1.69648C7.1651 1.92267 7.34367 2.2441 7.56986 2.66077C7.79605 3.07743 8.00438 3.45541 8.19486 3.79469C8.38534 4.13398 8.56986 4.45243 8.74843 4.75005C8.78415 4.79767 8.88831 4.94648 9.06093 5.19648C9.23355 5.44648 9.36153 5.65779 9.44486 5.83041C9.52819 6.00303 9.56986 6.17267 9.56986 6.33934C9.56986 6.57743 9.40022 6.87505 9.06093 7.23219C8.72165 7.58934 8.3526 7.91672 7.95379 8.21434C7.55498 8.51196 7.18593 8.82743 6.84664 9.16077C6.50736 9.4941 6.33772 9.76791 6.33772 9.98219C6.33772 10.0893 6.36748 10.2233 6.427 10.384C6.48653 10.5447 6.53712 10.6667 6.57879 10.7501C6.62045 10.8334 6.70379 10.9762 6.82879 11.1786C6.95379 11.381 7.02224 11.4941 7.03414 11.5179C7.93891 13.1489 8.97462 14.5477 10.1413 15.7143C11.308 16.881 12.7068 17.9167 14.3377 18.8215C14.3615 18.8334 14.4746 18.9018 14.677 19.0268C14.8794 19.1518 15.0222 19.2352 15.1056 19.2768C15.1889 19.3185 15.3109 19.3691 15.4716 19.4286C15.6324 19.4881 15.7663 19.5179 15.8734 19.5179C16.0877 19.5179 16.3615 19.3483 16.6949 19.009C17.0282 18.6697 17.3437 18.3006 17.6413 17.9018C17.9389 17.503 18.2663 17.134 18.6234 16.7947C18.9806 16.4554 19.2782 16.2858 19.5163 16.2858C19.683 16.2858 19.8526 16.3274 20.0252 16.4108C20.1978 16.4941 20.4091 16.6221 20.6591 16.7947C20.9091 16.9673 21.058 17.0715 21.1056 17.1072C21.4032 17.2858 21.7216 17.4703 22.0609 17.6608C22.4002 17.8512 22.7782 18.0596 23.1949 18.2858C23.6115 18.512 23.933 18.6905 24.1591 18.8215C24.9925 19.2381 25.4449 19.5536 25.5163 19.7679C25.552 19.8512 25.5699 19.9762 25.5699 20.1429Z" fill="#50AAB2"/>
</svg>
